<mxfile host="Electron" modified="2024-05-08T17:37:17.846Z" agent="Mozilla/5.0 (Windows NT 10.0; Win64; x64) AppleWebKit/537.36 (KHTML, like Gecko) draw.io/22.1.2 Chrome/114.0.5735.289 Electron/25.9.4 Safari/537.36" etag="XqoojvARqMriEDSQoYln" version="22.1.2" type="device">
  <diagram name="Page-1" id="NSB4ByACfrtApxY5IPiV">
    <mxGraphModel dx="1434" dy="27" grid="1" gridSize="10" guides="1" tooltips="1" connect="1" arrows="1" fold="1" page="1" pageScale="1" pageWidth="1169" pageHeight="827" math="0" shadow="0">
      <root>
        <mxCell id="0" />
        <mxCell id="1" parent="0" />
        <mxCell id="m6SgAO8yMK76FeFp-nsE-18" value="" style="group" parent="1" vertex="1" connectable="0">
          <mxGeometry x="35" y="1440" width="330" height="180" as="geometry" />
        </mxCell>
        <mxCell id="m6SgAO8yMK76FeFp-nsE-12" value="" style="verticalAlign=top;align=left;spacingTop=8;spacingLeft=2;spacingRight=12;shape=cube;size=10;direction=south;fontStyle=4;html=1;whiteSpace=wrap;" parent="m6SgAO8yMK76FeFp-nsE-18" vertex="1">
          <mxGeometry width="330" height="180" as="geometry" />
        </mxCell>
        <mxCell id="m6SgAO8yMK76FeFp-nsE-13" value="&amp;lt;&amp;lt;artifact&amp;gt;&amp;gt;&lt;br style=&quot;border-color: var(--border-color);&quot;&gt;Database&lt;br&gt;MS SQL" style="shape=module;align=left;spacingLeft=20;align=center;verticalAlign=top;whiteSpace=wrap;html=1;" parent="m6SgAO8yMK76FeFp-nsE-18" vertex="1">
          <mxGeometry x="79.84096774193549" y="69" width="170.32258064516128" height="65" as="geometry" />
        </mxCell>
        <mxCell id="m6SgAO8yMK76FeFp-nsE-14" value="&amp;lt;&amp;lt;device&amp;gt;&amp;gt;&lt;br style=&quot;font-size: 12px;&quot;&gt;:Database Server" style="text;html=1;align=left;verticalAlign=middle;resizable=0;points=[];autosize=1;strokeColor=none;fillColor=none;fontSize=12;" parent="m6SgAO8yMK76FeFp-nsE-18" vertex="1">
          <mxGeometry x="10.64516129032258" y="20" width="120" height="40" as="geometry" />
        </mxCell>
        <mxCell id="m6SgAO8yMK76FeFp-nsE-6" value="" style="verticalAlign=top;align=left;spacingTop=8;spacingLeft=2;spacingRight=12;shape=cube;size=10;direction=south;fontStyle=4;html=1;whiteSpace=wrap;points=[[0,0,0,0,0],[0,0,0,0,160],[0,0,0,0,320],[0,0,0,5,325],[0,0,0,10,330],[0,0,0,225.5,0],[0,0,0,235.5,330],[0,0,0,451,0],[0,0,0,456,5],[0,0,0,461,10],[0,0,0,461,170],[1,0.14,0,0,0],[1,0.14,0,3,0],[1,0.28,0,0,0],[1,0.3,0,3,0],[1,0.65,0,0,0],[1,0.69,0,0,0],[1,0.74,0,3,0],[1,0.8,0,0,0],[1,1,0,0,0]];" parent="1" vertex="1">
          <mxGeometry x="45" y="920" width="330" height="461" as="geometry" />
        </mxCell>
        <mxCell id="m6SgAO8yMK76FeFp-nsE-9" value="&amp;lt;&amp;lt;device&amp;gt;&amp;gt;&lt;br style=&quot;font-size: 12px;&quot;&gt;:Web Server" style="text;html=1;align=left;verticalAlign=middle;resizable=0;points=[];autosize=1;strokeColor=none;fillColor=none;fontSize=12;" parent="1" vertex="1">
          <mxGeometry x="55" y="946" width="90" height="40" as="geometry" />
        </mxCell>
        <mxCell id="m6SgAO8yMK76FeFp-nsE-10" value="" style="verticalAlign=top;align=left;spacingTop=8;spacingLeft=2;spacingRight=12;shape=cube;size=10;direction=south;fontStyle=4;html=1;whiteSpace=wrap;" parent="1" vertex="1">
          <mxGeometry x="65" y="1011" width="240" height="330" as="geometry" />
        </mxCell>
        <mxCell id="m6SgAO8yMK76FeFp-nsE-11" value="&amp;lt;&amp;lt;execuationEnviorment&amp;gt;&amp;gt;&lt;br style=&quot;font-size: 12px;&quot;&gt;" style="text;html=1;align=left;verticalAlign=middle;resizable=0;points=[];autosize=1;strokeColor=none;fillColor=none;fontSize=12;" parent="1" vertex="1">
          <mxGeometry x="75" y="1036" width="170" height="30" as="geometry" />
        </mxCell>
        <mxCell id="m6SgAO8yMK76FeFp-nsE-15" value="&amp;lt;&amp;lt;artifact&amp;gt;&amp;gt;&lt;br&gt;Presentation Layer&lt;br&gt;Angular UI" style="shape=module;align=left;spacingLeft=20;align=center;verticalAlign=top;whiteSpace=wrap;html=1;" parent="1" vertex="1">
          <mxGeometry x="85" y="1086" width="160" height="65" as="geometry" />
        </mxCell>
        <mxCell id="m6SgAO8yMK76FeFp-nsE-16" value="&amp;lt;&amp;lt;artifact&amp;gt;&amp;gt;&lt;br style=&quot;border-color: var(--border-color);&quot;&gt;Business Logic Layer&lt;br&gt;.Net Core Web API" style="shape=module;align=left;spacingLeft=20;align=center;verticalAlign=top;whiteSpace=wrap;html=1;" parent="1" vertex="1">
          <mxGeometry x="85" y="1161" width="160" height="65" as="geometry" />
        </mxCell>
        <mxCell id="m6SgAO8yMK76FeFp-nsE-17" value="&amp;lt;&amp;lt;artifact&amp;gt;&amp;gt;&lt;br style=&quot;border-color: var(--border-color);&quot;&gt;Machine Learning Models&lt;br&gt;ML .NET&amp;nbsp;" style="shape=module;align=left;spacingLeft=20;align=center;verticalAlign=top;whiteSpace=wrap;html=1;" parent="1" vertex="1">
          <mxGeometry x="85" y="1241" width="160" height="65" as="geometry" />
        </mxCell>
        <mxCell id="m6SgAO8yMK76FeFp-nsE-22" value="" style="group" parent="1" vertex="1" connectable="0">
          <mxGeometry x="700" y="880" width="310" height="180" as="geometry" />
        </mxCell>
        <mxCell id="m6SgAO8yMK76FeFp-nsE-23" value="" style="verticalAlign=top;align=left;spacingTop=8;spacingLeft=2;spacingRight=12;shape=cube;size=10;direction=south;fontStyle=4;html=1;whiteSpace=wrap;" parent="m6SgAO8yMK76FeFp-nsE-22" vertex="1">
          <mxGeometry width="310" height="180" as="geometry" />
        </mxCell>
        <mxCell id="m6SgAO8yMK76FeFp-nsE-24" value="&lt;br&gt;&amp;lt;&amp;lt;artifact&amp;gt;&amp;gt;&lt;br&gt;Web Browser" style="shape=module;align=left;spacingLeft=20;align=center;verticalAlign=top;whiteSpace=wrap;html=1;" parent="m6SgAO8yMK76FeFp-nsE-22" vertex="1">
          <mxGeometry x="60" y="79" width="160" height="65" as="geometry" />
        </mxCell>
        <mxCell id="m6SgAO8yMK76FeFp-nsE-25" value="&amp;lt;&amp;lt;device&amp;gt;&amp;gt;&lt;br style=&quot;font-size: 12px;&quot;&gt;:Consumer PC" style="text;html=1;align=left;verticalAlign=middle;resizable=0;points=[];autosize=1;strokeColor=none;fillColor=none;fontSize=12;" parent="m6SgAO8yMK76FeFp-nsE-22" vertex="1">
          <mxGeometry x="10" y="20" width="100" height="40" as="geometry" />
        </mxCell>
        <mxCell id="m6SgAO8yMK76FeFp-nsE-26" value="" style="endArrow=none;html=1;edgeStyle=orthogonalEdgeStyle;rounded=0;exitX=0.208;exitY=-0.003;exitDx=0;exitDy=0;exitPerimeter=0;entryX=0;entryY=0;entryDx=95;entryDy=310;entryPerimeter=0;" parent="1" source="m6SgAO8yMK76FeFp-nsE-6" target="m6SgAO8yMK76FeFp-nsE-23" edge="1">
          <mxGeometry relative="1" as="geometry">
            <mxPoint x="475" y="1070" as="sourcePoint" />
            <mxPoint x="675" y="1060" as="targetPoint" />
          </mxGeometry>
        </mxCell>
        <mxCell id="m6SgAO8yMK76FeFp-nsE-29" value="HTTP protocols&amp;nbsp;" style="text;html=1;align=center;verticalAlign=middle;resizable=0;points=[];autosize=1;strokeColor=none;fillColor=none;" parent="1" vertex="1">
          <mxGeometry x="415" y="986" width="110" height="30" as="geometry" />
        </mxCell>
        <mxCell id="m6SgAO8yMK76FeFp-nsE-30" value="Entity Framework Core&lt;br style=&quot;border-color: var(--border-color); font-size: 12px; background-color: rgb(251, 251, 251);&quot;&gt;&lt;span style=&quot;font-size: 12px; background-color: rgb(251, 251, 251);&quot;&gt;ORM&lt;/span&gt;" style="endArrow=open;endSize=12;dashed=1;html=1;rounded=0;exitX=0;exitY=0;exitDx=461;exitDy=170;exitPerimeter=0;entryX=0;entryY=0;entryDx=0;entryDy=160;entryPerimeter=0;" parent="1" source="m6SgAO8yMK76FeFp-nsE-6" target="m6SgAO8yMK76FeFp-nsE-12" edge="1">
          <mxGeometry width="160" relative="1" as="geometry">
            <mxPoint x="315" y="1410" as="sourcePoint" />
            <mxPoint x="475" y="1410" as="targetPoint" />
          </mxGeometry>
        </mxCell>
        <mxCell id="m6SgAO8yMK76FeFp-nsE-43" value="" style="verticalAlign=top;align=left;spacingTop=8;spacingLeft=2;spacingRight=12;shape=cube;size=10;direction=south;fontStyle=4;html=1;whiteSpace=wrap;points=[[0,0,0,0,0],[0,0,0,0,160],[0,0,0,0,320],[0,0,0,5,325],[0,0,0,10,330],[0,0,0,225.5,0],[0,0,0,235.5,330],[0,0,0,451,0],[0,0,0,456,5],[0,0,0,461,10],[0,0,0,461,170],[1,0.14,0,0,0],[1,0.14,0,3,0],[1,0.28,0,0,0],[1,0.3,0,3,0],[1,0.65,0,0,0],[1,0.74,0,3,0],[1,0.8,0,0,0],[1,1,0,0,0]];" parent="1" vertex="1">
          <mxGeometry x="805" y="1110" width="330" height="370" as="geometry" />
        </mxCell>
        <mxCell id="m6SgAO8yMK76FeFp-nsE-44" value="&amp;lt;&amp;lt;execuationEnviorment&amp;gt;&amp;gt;&lt;br style=&quot;font-size: 12px;&quot;&gt;" style="text;html=1;align=left;verticalAlign=middle;resizable=0;points=[];autosize=1;strokeColor=none;fillColor=none;fontSize=12;" parent="1" vertex="1">
          <mxGeometry x="815" y="1127.5" width="170" height="30" as="geometry" />
        </mxCell>
        <mxCell id="m6SgAO8yMK76FeFp-nsE-45" value="" style="group" parent="1" vertex="1" connectable="0">
          <mxGeometry x="845" y="1169" width="248" height="130" as="geometry" />
        </mxCell>
        <mxCell id="m6SgAO8yMK76FeFp-nsE-46" value="" style="verticalAlign=top;align=left;spacingTop=8;spacingLeft=2;spacingRight=12;shape=cube;size=10;direction=south;fontStyle=4;html=1;whiteSpace=wrap;" parent="m6SgAO8yMK76FeFp-nsE-45" vertex="1">
          <mxGeometry width="248" height="130" as="geometry" />
        </mxCell>
        <mxCell id="m6SgAO8yMK76FeFp-nsE-47" value="&amp;lt;&amp;lt;artifact&amp;gt;&amp;gt;&lt;br&gt;Framework" style="shape=module;align=left;spacingLeft=20;align=center;verticalAlign=top;whiteSpace=wrap;html=1;" parent="m6SgAO8yMK76FeFp-nsE-45" vertex="1">
          <mxGeometry x="48" y="57.05555555555556" width="127.99999999999999" height="46.94444444444445" as="geometry" />
        </mxCell>
        <mxCell id="m6SgAO8yMK76FeFp-nsE-48" value="&amp;lt;&amp;lt;device&amp;gt;&amp;gt;&lt;br style=&quot;font-size: 12px;&quot;&gt;:Smart Meter" style="text;html=1;align=left;verticalAlign=middle;resizable=0;points=[];autosize=1;strokeColor=none;fillColor=none;fontSize=12;" parent="m6SgAO8yMK76FeFp-nsE-45" vertex="1">
          <mxGeometry x="7.999999999999999" y="14.444444444444445" width="90" height="40" as="geometry" />
        </mxCell>
        <mxCell id="m6SgAO8yMK76FeFp-nsE-49" value="" style="verticalAlign=top;align=left;spacingTop=8;spacingLeft=2;spacingRight=12;shape=cube;size=10;direction=south;fontStyle=4;html=1;whiteSpace=wrap;" parent="1" vertex="1">
          <mxGeometry x="845" y="1319" width="248" height="130" as="geometry" />
        </mxCell>
        <mxCell id="m6SgAO8yMK76FeFp-nsE-50" value="&amp;lt;&amp;lt;device&amp;gt;&amp;gt;&lt;br style=&quot;font-size: 12px;&quot;&gt;:IoT Device" style="text;html=1;align=left;verticalAlign=middle;resizable=0;points=[];autosize=1;strokeColor=none;fillColor=none;fontSize=12;" parent="1" vertex="1">
          <mxGeometry x="855" y="1339.0044444444445" width="90" height="40" as="geometry" />
        </mxCell>
        <mxCell id="m6SgAO8yMK76FeFp-nsE-55" value="&amp;lt;&amp;lt;artifact&amp;gt;&amp;gt;&lt;br&gt;Framework" style="shape=module;align=left;spacingLeft=20;align=center;verticalAlign=top;whiteSpace=wrap;html=1;" parent="1" vertex="1">
          <mxGeometry x="895" y="1379.0055555555555" width="127.99999999999999" height="46.94444444444445" as="geometry" />
        </mxCell>
        <mxCell id="m6SgAO8yMK76FeFp-nsE-56" value="" style="verticalAlign=top;align=left;spacingTop=8;spacingLeft=2;spacingRight=12;shape=cube;size=10;direction=south;fontStyle=4;html=1;whiteSpace=wrap;points=[[0,0,0,0,0],[0,0,0,0,160],[0,0,0,0,320],[0,0,0,5,325],[0,0,0,10,330],[0,0,0,225.5,0],[0,0,0,235.5,330],[0,0,0,451,0],[0,0,0,456,5],[0,0,0,461,10],[0,0,0,461,170],[1,0.14,0,0,0],[1,0.14,0,3,0],[1,0.28,0,0,0],[1,0.3,0,3,0],[1,0.65,0,0,0],[1,0.74,0,3,0],[1,0.8,0,0,0],[1,1,0,0,0]];" parent="1" vertex="1">
          <mxGeometry x="455" y="1390" width="260" height="180" as="geometry" />
        </mxCell>
        <mxCell id="m6SgAO8yMK76FeFp-nsE-57" value="&amp;lt;&amp;lt;execuationEnviorment&amp;gt;&amp;gt;&lt;br style=&quot;font-size: 12px;&quot;&gt;:Smart Grid" style="text;html=1;align=left;verticalAlign=middle;resizable=0;points=[];autosize=1;strokeColor=none;fillColor=none;fontSize=12;" parent="1" vertex="1">
          <mxGeometry x="465" y="1409.0044444444445" width="170" height="40" as="geometry" />
        </mxCell>
        <mxCell id="m6SgAO8yMK76FeFp-nsE-62" value="&amp;lt;&amp;lt;artifact&amp;gt;&amp;gt;&lt;br&gt;Framework" style="shape=module;align=left;spacingLeft=20;align=center;verticalAlign=top;whiteSpace=wrap;html=1;" parent="1" vertex="1">
          <mxGeometry x="485" y="1460" width="179.81" height="65.94" as="geometry" />
        </mxCell>
        <mxCell id="m6SgAO8yMK76FeFp-nsE-63" value="" style="endArrow=none;html=1;edgeStyle=orthogonalEdgeStyle;rounded=0;exitX=0;exitY=0;exitDx=225.5;exitDy=0;exitPerimeter=0;entryX=0.405;entryY=1.006;entryDx=0;entryDy=0;entryPerimeter=0;" parent="1" source="m6SgAO8yMK76FeFp-nsE-6" target="m6SgAO8yMK76FeFp-nsE-43" edge="1">
          <mxGeometry relative="1" as="geometry">
            <mxPoint x="386" y="986" as="sourcePoint" />
            <mxPoint x="565" y="985" as="targetPoint" />
            <Array as="points">
              <mxPoint x="735" y="1106" />
              <mxPoint x="735" y="1260" />
            </Array>
          </mxGeometry>
        </mxCell>
        <mxCell id="m6SgAO8yMK76FeFp-nsE-64" value="HTTP protocols&amp;nbsp;" style="text;html=1;align=center;verticalAlign=middle;resizable=0;points=[];autosize=1;strokeColor=none;fillColor=none;" parent="1" vertex="1">
          <mxGeometry x="505" y="1080" width="110" height="30" as="geometry" />
        </mxCell>
        <mxCell id="m6SgAO8yMK76FeFp-nsE-65" value="JSON Data" style="text;html=1;align=center;verticalAlign=middle;resizable=0;points=[];autosize=1;strokeColor=none;fillColor=none;" parent="1" vertex="1">
          <mxGeometry x="520" y="1110" width="80" height="30" as="geometry" />
        </mxCell>
        <mxCell id="m6SgAO8yMK76FeFp-nsE-66" value="" style="endArrow=none;html=1;edgeStyle=orthogonalEdgeStyle;rounded=0;exitX=0.759;exitY=-0.003;exitDx=0;exitDy=0;exitPerimeter=0;entryX=0;entryY=0;entryDx=0;entryDy=160;entryPerimeter=0;" parent="1" source="m6SgAO8yMK76FeFp-nsE-6" target="m6SgAO8yMK76FeFp-nsE-56" edge="1">
          <mxGeometry relative="1" as="geometry">
            <mxPoint x="385" y="1116" as="sourcePoint" />
            <mxPoint x="813" y="1270" as="targetPoint" />
          </mxGeometry>
        </mxCell>
        <mxCell id="m6SgAO8yMK76FeFp-nsE-67" value="JSON Data" style="text;html=1;align=center;verticalAlign=middle;resizable=0;points=[];autosize=1;strokeColor=none;fillColor=none;" parent="1" vertex="1">
          <mxGeometry x="415" y="1276" width="80" height="30" as="geometry" />
        </mxCell>
        <mxCell id="m6SgAO8yMK76FeFp-nsE-68" value="HTTP protocols&amp;nbsp;" style="text;html=1;align=center;verticalAlign=middle;resizable=0;points=[];autosize=1;strokeColor=none;fillColor=none;" parent="1" vertex="1">
          <mxGeometry x="410" y="1230" width="110" height="30" as="geometry" />
        </mxCell>
        <mxCell id="m6SgAO8yMK76FeFp-nsE-69" value="&lt;font style=&quot;font-size: 19px;&quot;&gt;EMOS Deployment Diagram&lt;/font&gt;" style="shape=umlFrame;whiteSpace=wrap;html=1;pointerEvents=0;width=395;height=50;" parent="1" vertex="1">
          <mxGeometry x="5" y="840" width="1145" height="800" as="geometry" />
        </mxCell>
      </root>
    </mxGraphModel>
  </diagram>
</mxfile>
